G04 #@! TF.FileFunction,Legend,Bot*
%FSLAX46Y46*%
G04 Gerber Fmt 4.6, Leading zero omitted, Abs format (unit mm)*
G04 Created by KiCad (PCBNEW 4.0.4-stable) date 10/01/16 14:24:08*
%MOMM*%
%LPD*%
G01*
G04 APERTURE LIST*
%ADD10C,0.100000*%
%ADD11C,0.175000*%
%ADD12C,0.150000*%
G04 APERTURE END LIST*
D10*
D11*
X174474999Y-110725000D02*
X174374999Y-110758333D01*
X174341666Y-110791667D01*
X174308332Y-110858333D01*
X174308332Y-110958333D01*
X174341666Y-111025000D01*
X174374999Y-111058333D01*
X174441666Y-111091667D01*
X174708332Y-111091667D01*
X174708332Y-110391667D01*
X174474999Y-110391667D01*
X174408332Y-110425000D01*
X174374999Y-110458333D01*
X174341666Y-110525000D01*
X174341666Y-110591667D01*
X174374999Y-110658333D01*
X174408332Y-110691667D01*
X174474999Y-110725000D01*
X174708332Y-110725000D01*
X173908332Y-111091667D02*
X173974999Y-111058333D01*
X174008332Y-111025000D01*
X174041666Y-110958333D01*
X174041666Y-110758333D01*
X174008332Y-110691667D01*
X173974999Y-110658333D01*
X173908332Y-110625000D01*
X173808332Y-110625000D01*
X173741666Y-110658333D01*
X173708332Y-110691667D01*
X173674999Y-110758333D01*
X173674999Y-110958333D01*
X173708332Y-111025000D01*
X173741666Y-111058333D01*
X173808332Y-111091667D01*
X173908332Y-111091667D01*
X173274999Y-111091667D02*
X173341666Y-111058333D01*
X173374999Y-111025000D01*
X173408333Y-110958333D01*
X173408333Y-110758333D01*
X173374999Y-110691667D01*
X173341666Y-110658333D01*
X173274999Y-110625000D01*
X173174999Y-110625000D01*
X173108333Y-110658333D01*
X173074999Y-110691667D01*
X173041666Y-110758333D01*
X173041666Y-110958333D01*
X173074999Y-111025000D01*
X173108333Y-111058333D01*
X173174999Y-111091667D01*
X173274999Y-111091667D01*
X172775000Y-111058333D02*
X172708333Y-111091667D01*
X172575000Y-111091667D01*
X172508333Y-111058333D01*
X172475000Y-110991667D01*
X172475000Y-110958333D01*
X172508333Y-110891667D01*
X172575000Y-110858333D01*
X172675000Y-110858333D01*
X172741666Y-110825000D01*
X172775000Y-110758333D01*
X172775000Y-110725000D01*
X172741666Y-110658333D01*
X172675000Y-110625000D01*
X172575000Y-110625000D01*
X172508333Y-110658333D01*
X172274999Y-110625000D02*
X172008333Y-110625000D01*
X172174999Y-110391667D02*
X172174999Y-110991667D01*
X172141666Y-111058333D01*
X172074999Y-111091667D01*
X172008333Y-111091667D01*
X171374999Y-111025000D02*
X171408333Y-111058333D01*
X171508333Y-111091667D01*
X171574999Y-111091667D01*
X171674999Y-111058333D01*
X171741666Y-110991667D01*
X171774999Y-110925000D01*
X171808333Y-110791667D01*
X171808333Y-110691667D01*
X171774999Y-110558333D01*
X171741666Y-110491667D01*
X171674999Y-110425000D01*
X171574999Y-110391667D01*
X171508333Y-110391667D01*
X171408333Y-110425000D01*
X171374999Y-110458333D01*
X170974999Y-111091667D02*
X171041666Y-111058333D01*
X171074999Y-111025000D01*
X171108333Y-110958333D01*
X171108333Y-110758333D01*
X171074999Y-110691667D01*
X171041666Y-110658333D01*
X170974999Y-110625000D01*
X170874999Y-110625000D01*
X170808333Y-110658333D01*
X170774999Y-110691667D01*
X170741666Y-110758333D01*
X170741666Y-110958333D01*
X170774999Y-111025000D01*
X170808333Y-111058333D01*
X170874999Y-111091667D01*
X170974999Y-111091667D01*
X170441666Y-110625000D02*
X170441666Y-111091667D01*
X170441666Y-110691667D02*
X170408333Y-110658333D01*
X170341666Y-110625000D01*
X170241666Y-110625000D01*
X170175000Y-110658333D01*
X170141666Y-110725000D01*
X170141666Y-111091667D01*
X169875000Y-110625000D02*
X169708333Y-111091667D01*
X169541667Y-110625000D01*
X169008334Y-111058333D02*
X169075000Y-111091667D01*
X169208334Y-111091667D01*
X169275000Y-111058333D01*
X169308334Y-110991667D01*
X169308334Y-110725000D01*
X169275000Y-110658333D01*
X169208334Y-110625000D01*
X169075000Y-110625000D01*
X169008334Y-110658333D01*
X168975000Y-110725000D01*
X168975000Y-110791667D01*
X169308334Y-110858333D01*
X168675000Y-111091667D02*
X168675000Y-110625000D01*
X168675000Y-110758333D02*
X168641667Y-110691667D01*
X168608334Y-110658333D01*
X168541667Y-110625000D01*
X168475000Y-110625000D01*
X168341667Y-110625000D02*
X168075001Y-110625000D01*
X168241667Y-110391667D02*
X168241667Y-110991667D01*
X168208334Y-111058333D01*
X168141667Y-111091667D01*
X168075001Y-111091667D01*
X167575001Y-111058333D02*
X167641667Y-111091667D01*
X167775001Y-111091667D01*
X167841667Y-111058333D01*
X167875001Y-110991667D01*
X167875001Y-110725000D01*
X167841667Y-110658333D01*
X167775001Y-110625000D01*
X167641667Y-110625000D01*
X167575001Y-110658333D01*
X167541667Y-110725000D01*
X167541667Y-110791667D01*
X167875001Y-110858333D01*
X167241667Y-111091667D02*
X167241667Y-110625000D01*
X167241667Y-110758333D02*
X167208334Y-110691667D01*
X167175001Y-110658333D01*
X167108334Y-110625000D01*
X167041667Y-110625000D01*
D12*
X176475000Y-119700000D02*
X176475000Y-120700000D01*
X177825000Y-120700000D02*
X177825000Y-119700000D01*
X177266666Y-118016667D02*
X177500000Y-117683333D01*
X177666666Y-118016667D02*
X177666666Y-117316667D01*
X177400000Y-117316667D01*
X177333333Y-117350000D01*
X177300000Y-117383333D01*
X177266666Y-117450000D01*
X177266666Y-117550000D01*
X177300000Y-117616667D01*
X177333333Y-117650000D01*
X177400000Y-117683333D01*
X177666666Y-117683333D01*
X177000000Y-117383333D02*
X176966666Y-117350000D01*
X176900000Y-117316667D01*
X176733333Y-117316667D01*
X176666666Y-117350000D01*
X176633333Y-117383333D01*
X176600000Y-117450000D01*
X176600000Y-117516667D01*
X176633333Y-117616667D01*
X177033333Y-118016667D01*
X176600000Y-118016667D01*
M02*
