G04 #@! TF.FileFunction,Copper,L2,Bot,Signal*
%FSLAX46Y46*%
G04 Gerber Fmt 4.6, Leading zero omitted, Abs format (unit mm)*
G04 Created by KiCad (PCBNEW 4.0.4-stable) date 10/01/16 14:24:08*
%MOMM*%
%LPD*%
G01*
G04 APERTURE LIST*
%ADD10C,0.100000*%
%ADD11C,0.175000*%
%ADD12R,2.032000X2.032000*%
%ADD13O,2.032000X2.032000*%
%ADD14R,2.032000X1.727200*%
%ADD15O,2.032000X1.727200*%
%ADD16R,0.900000X1.200000*%
%ADD17C,0.609000*%
%ADD18C,0.457000*%
%ADD19C,0.381000*%
%ADD20C,0.203000*%
G04 APERTURE END LIST*
D10*
D11*
X174449999Y-110750000D02*
X174349999Y-110783333D01*
X174316666Y-110816667D01*
X174283332Y-110883333D01*
X174283332Y-110983333D01*
X174316666Y-111050000D01*
X174349999Y-111083333D01*
X174416666Y-111116667D01*
X174683332Y-111116667D01*
X174683332Y-110416667D01*
X174449999Y-110416667D01*
X174383332Y-110450000D01*
X174349999Y-110483333D01*
X174316666Y-110550000D01*
X174316666Y-110616667D01*
X174349999Y-110683333D01*
X174383332Y-110716667D01*
X174449999Y-110750000D01*
X174683332Y-110750000D01*
X173883332Y-111116667D02*
X173949999Y-111083333D01*
X173983332Y-111050000D01*
X174016666Y-110983333D01*
X174016666Y-110783333D01*
X173983332Y-110716667D01*
X173949999Y-110683333D01*
X173883332Y-110650000D01*
X173783332Y-110650000D01*
X173716666Y-110683333D01*
X173683332Y-110716667D01*
X173649999Y-110783333D01*
X173649999Y-110983333D01*
X173683332Y-111050000D01*
X173716666Y-111083333D01*
X173783332Y-111116667D01*
X173883332Y-111116667D01*
X173249999Y-111116667D02*
X173316666Y-111083333D01*
X173349999Y-111050000D01*
X173383333Y-110983333D01*
X173383333Y-110783333D01*
X173349999Y-110716667D01*
X173316666Y-110683333D01*
X173249999Y-110650000D01*
X173149999Y-110650000D01*
X173083333Y-110683333D01*
X173049999Y-110716667D01*
X173016666Y-110783333D01*
X173016666Y-110983333D01*
X173049999Y-111050000D01*
X173083333Y-111083333D01*
X173149999Y-111116667D01*
X173249999Y-111116667D01*
X172750000Y-111083333D02*
X172683333Y-111116667D01*
X172550000Y-111116667D01*
X172483333Y-111083333D01*
X172450000Y-111016667D01*
X172450000Y-110983333D01*
X172483333Y-110916667D01*
X172550000Y-110883333D01*
X172650000Y-110883333D01*
X172716666Y-110850000D01*
X172750000Y-110783333D01*
X172750000Y-110750000D01*
X172716666Y-110683333D01*
X172650000Y-110650000D01*
X172550000Y-110650000D01*
X172483333Y-110683333D01*
X172249999Y-110650000D02*
X171983333Y-110650000D01*
X172149999Y-110416667D02*
X172149999Y-111016667D01*
X172116666Y-111083333D01*
X172049999Y-111116667D01*
X171983333Y-111116667D01*
X171349999Y-111050000D02*
X171383333Y-111083333D01*
X171483333Y-111116667D01*
X171549999Y-111116667D01*
X171649999Y-111083333D01*
X171716666Y-111016667D01*
X171749999Y-110950000D01*
X171783333Y-110816667D01*
X171783333Y-110716667D01*
X171749999Y-110583333D01*
X171716666Y-110516667D01*
X171649999Y-110450000D01*
X171549999Y-110416667D01*
X171483333Y-110416667D01*
X171383333Y-110450000D01*
X171349999Y-110483333D01*
X170949999Y-111116667D02*
X171016666Y-111083333D01*
X171049999Y-111050000D01*
X171083333Y-110983333D01*
X171083333Y-110783333D01*
X171049999Y-110716667D01*
X171016666Y-110683333D01*
X170949999Y-110650000D01*
X170849999Y-110650000D01*
X170783333Y-110683333D01*
X170749999Y-110716667D01*
X170716666Y-110783333D01*
X170716666Y-110983333D01*
X170749999Y-111050000D01*
X170783333Y-111083333D01*
X170849999Y-111116667D01*
X170949999Y-111116667D01*
X170416666Y-110650000D02*
X170416666Y-111116667D01*
X170416666Y-110716667D02*
X170383333Y-110683333D01*
X170316666Y-110650000D01*
X170216666Y-110650000D01*
X170150000Y-110683333D01*
X170116666Y-110750000D01*
X170116666Y-111116667D01*
X169850000Y-110650000D02*
X169683333Y-111116667D01*
X169516667Y-110650000D01*
X168983334Y-111083333D02*
X169050000Y-111116667D01*
X169183334Y-111116667D01*
X169250000Y-111083333D01*
X169283334Y-111016667D01*
X169283334Y-110750000D01*
X169250000Y-110683333D01*
X169183334Y-110650000D01*
X169050000Y-110650000D01*
X168983334Y-110683333D01*
X168950000Y-110750000D01*
X168950000Y-110816667D01*
X169283334Y-110883333D01*
X168650000Y-111116667D02*
X168650000Y-110650000D01*
X168650000Y-110783333D02*
X168616667Y-110716667D01*
X168583334Y-110683333D01*
X168516667Y-110650000D01*
X168450000Y-110650000D01*
X168316667Y-110650000D02*
X168050001Y-110650000D01*
X168216667Y-110416667D02*
X168216667Y-111016667D01*
X168183334Y-111083333D01*
X168116667Y-111116667D01*
X168050001Y-111116667D01*
X167550001Y-111083333D02*
X167616667Y-111116667D01*
X167750001Y-111116667D01*
X167816667Y-111083333D01*
X167850001Y-111016667D01*
X167850001Y-110750000D01*
X167816667Y-110683333D01*
X167750001Y-110650000D01*
X167616667Y-110650000D01*
X167550001Y-110683333D01*
X167516667Y-110750000D01*
X167516667Y-110816667D01*
X167850001Y-110883333D01*
X167216667Y-111116667D02*
X167216667Y-110650000D01*
X167216667Y-110783333D02*
X167183334Y-110716667D01*
X167150001Y-110683333D01*
X167083334Y-110650000D01*
X167016667Y-110650000D01*
D12*
X168650000Y-119550000D03*
D13*
X168650000Y-122090000D03*
D14*
X182450000Y-111750000D03*
D15*
X182450000Y-114290000D03*
X182450000Y-116830000D03*
D12*
X182450000Y-123300000D03*
D13*
X182450000Y-120760000D03*
D16*
X177150000Y-121300000D03*
X177150000Y-119100000D03*
D17*
X177038000Y-114808000D03*
X173175000Y-116750000D03*
X179375000Y-111650000D03*
X179350000Y-116250000D03*
D18*
X177150000Y-118095000D03*
X176276000Y-121031000D03*
X177825000Y-121300000D03*
D19*
X168650000Y-116211000D02*
X170053000Y-114808000D01*
X170053000Y-114808000D02*
X176276000Y-114808000D01*
X168650000Y-116211000D02*
X168650000Y-119550000D01*
X176149000Y-114808000D02*
X176276000Y-114808000D01*
X177038000Y-114808000D02*
X176149000Y-114808000D01*
X179350000Y-116250000D02*
X173675000Y-116250000D01*
X173675000Y-116250000D02*
X173175000Y-116750000D01*
X170235000Y-122090000D02*
X168650000Y-122090000D01*
X173175000Y-116750000D02*
X171425000Y-116750000D01*
X171425000Y-116750000D02*
X170650000Y-117525000D01*
X170650000Y-117525000D02*
X170650000Y-121675000D01*
X170650000Y-121675000D02*
X170235000Y-122090000D01*
X179350000Y-116250000D02*
X179375000Y-116225000D01*
X179375000Y-111650000D02*
X179375000Y-116225000D01*
D20*
X177150000Y-118095000D02*
X177150000Y-119100000D01*
X177150000Y-119100000D02*
X177150000Y-119268000D01*
X177150000Y-119268000D02*
X176276000Y-120142000D01*
X176276000Y-120142000D02*
X176276000Y-121031000D01*
X177825000Y-121300000D02*
X180075000Y-121300000D01*
X181160000Y-114290000D02*
X182450000Y-114290000D01*
X180700000Y-114750000D02*
X181160000Y-114290000D01*
X180700000Y-115200000D02*
X180700000Y-114750000D01*
X180700000Y-120675000D02*
X180700000Y-115200000D01*
X180075000Y-121300000D02*
X180700000Y-120675000D01*
X177150000Y-121300000D02*
X177825000Y-121300000D01*
M02*
