G04 #@! TF.FileFunction,Copper,L1,Top,Signal*
%FSLAX46Y46*%
G04 Gerber Fmt 4.6, Leading zero omitted, Abs format (unit mm)*
G04 Created by KiCad (PCBNEW 4.0.4-stable) date 10/01/16 14:24:08*
%MOMM*%
%LPD*%
G01*
G04 APERTURE LIST*
%ADD10C,0.100000*%
%ADD11R,2.032000X2.032000*%
%ADD12O,2.032000X2.032000*%
%ADD13R,1.200000X0.750000*%
%ADD14R,0.797560X0.797560*%
%ADD15R,0.400000X0.600000*%
%ADD16R,1.700000X3.800000*%
%ADD17R,2.032000X1.727200*%
%ADD18O,2.032000X1.727200*%
%ADD19R,0.802000X0.972000*%
%ADD20R,0.900000X1.200000*%
%ADD21R,1.200000X0.900000*%
%ADD22R,1.560000X0.650000*%
%ADD23C,0.609000*%
%ADD24C,0.457000*%
%ADD25C,0.381000*%
%ADD26C,0.203000*%
%ADD27C,0.254000*%
G04 APERTURE END LIST*
D10*
D11*
X168650000Y-119550000D03*
D12*
X168650000Y-122090000D03*
D13*
X175000000Y-117650000D03*
X173100000Y-117650000D03*
X173650000Y-122850000D03*
X171750000Y-122850000D03*
D14*
X175850700Y-123200000D03*
X177349300Y-123200000D03*
D15*
X178900000Y-123250000D03*
X179800000Y-123250000D03*
D16*
X167800000Y-113400000D03*
X175200000Y-113400000D03*
D17*
X182450000Y-111750000D03*
D18*
X182450000Y-114290000D03*
X182450000Y-116830000D03*
D11*
X182450000Y-123300000D03*
D12*
X182450000Y-120760000D03*
D19*
X179350000Y-113100000D03*
X177450000Y-113100000D03*
X178400000Y-114870000D03*
D20*
X177150000Y-119100000D03*
X177150000Y-121300000D03*
D21*
X177150000Y-117150000D03*
X179350000Y-117150000D03*
D20*
X179324000Y-119169000D03*
X179324000Y-121369000D03*
D22*
X172400000Y-119200000D03*
X172400000Y-120150000D03*
X172400000Y-121100000D03*
X175100000Y-121100000D03*
X175100000Y-119200000D03*
X175100000Y-120150000D03*
D23*
X177038000Y-114808000D03*
X173175000Y-116750000D03*
X179375000Y-111650000D03*
X179350000Y-116250000D03*
D24*
X177150000Y-118095000D03*
X176276000Y-121031000D03*
X177825000Y-121300000D03*
D25*
X178400000Y-114870000D02*
X177100000Y-114870000D01*
X177100000Y-114870000D02*
X177038000Y-114808000D01*
X173100000Y-117650000D02*
X173100000Y-116825000D01*
X173100000Y-116825000D02*
X173175000Y-116750000D01*
X179350000Y-116250000D02*
X179350000Y-117150000D01*
X172400000Y-120150000D02*
X171300000Y-120150000D01*
X171300000Y-120150000D02*
X170625000Y-120825000D01*
X175100000Y-119200000D02*
X175100000Y-117750000D01*
X175100000Y-117750000D02*
X175000000Y-117650000D01*
D26*
X177450000Y-113100000D02*
X175500000Y-113100000D01*
X175500000Y-113100000D02*
X175200000Y-113400000D01*
X175000000Y-117650000D02*
X175000000Y-113600000D01*
X175000000Y-113600000D02*
X175200000Y-113400000D01*
X175100000Y-117750000D02*
X175000000Y-117650000D01*
X175100000Y-119200000D02*
X173662000Y-119200000D01*
X173482000Y-120777000D02*
X173159000Y-121100000D01*
X173482000Y-119380000D02*
X173482000Y-120777000D01*
X173662000Y-119200000D02*
X173482000Y-119380000D01*
X173159000Y-121100000D02*
X172400000Y-121100000D01*
D25*
X175100000Y-120150000D02*
X176425000Y-120150000D01*
X176425000Y-120150000D02*
X177150000Y-119425000D01*
X177150000Y-119425000D02*
X177150000Y-119100000D01*
X175850700Y-123200000D02*
X175850700Y-123907700D01*
X181417000Y-124333000D02*
X182450000Y-123300000D01*
X176276000Y-124333000D02*
X181417000Y-124333000D01*
X175850700Y-123907700D02*
X176276000Y-124333000D01*
D26*
X175100000Y-120150000D02*
X174109000Y-120150000D01*
X173990000Y-120269000D02*
X173990000Y-122510000D01*
X174109000Y-120150000D02*
X173990000Y-120269000D01*
X173990000Y-122510000D02*
X173650000Y-122850000D01*
X177349300Y-123200000D02*
X178171000Y-123200000D01*
X178773000Y-119169000D02*
X179324000Y-119169000D01*
X178435000Y-119507000D02*
X178773000Y-119169000D01*
X178435000Y-122936000D02*
X178435000Y-119507000D01*
X178171000Y-123200000D02*
X178435000Y-122936000D01*
X178900000Y-123250000D02*
X178900000Y-121793000D01*
X178900000Y-121793000D02*
X179324000Y-121369000D01*
D25*
X172400000Y-119200000D02*
X171700000Y-119200000D01*
X171700000Y-119200000D02*
X171475000Y-118975000D01*
X171475000Y-118975000D02*
X171475000Y-118050000D01*
D26*
X179900000Y-115225000D02*
X180625000Y-114500000D01*
X177150000Y-115950000D02*
X177425000Y-115675000D01*
X177425000Y-115675000D02*
X179450000Y-115675000D01*
X179450000Y-115675000D02*
X179900000Y-115225000D01*
X177150000Y-117150000D02*
X177150000Y-115950000D01*
X181000000Y-111750000D02*
X182450000Y-111750000D01*
X180625000Y-112125000D02*
X181000000Y-111750000D01*
X180625000Y-114500000D02*
X180625000Y-112125000D01*
X177150000Y-117150000D02*
X177150000Y-118095000D01*
X177150000Y-118095000D02*
X177165000Y-118110000D01*
X176276000Y-121031000D02*
X176207000Y-121100000D01*
X176207000Y-121100000D02*
X175100000Y-121100000D01*
X182440000Y-111760000D02*
X182450000Y-111750000D01*
X177825000Y-121300000D02*
X177150000Y-121300000D01*
D27*
G36*
X173777000Y-122723000D02*
X173797000Y-122723000D01*
X173797000Y-122977000D01*
X173777000Y-122977000D01*
X173777000Y-123701250D01*
X173935750Y-123860000D01*
X174376309Y-123860000D01*
X174609698Y-123763327D01*
X174788327Y-123584699D01*
X174816920Y-123515669D01*
X174816920Y-123725090D01*
X174913593Y-123958479D01*
X175092222Y-124137107D01*
X175325611Y-124233780D01*
X175564950Y-124233780D01*
X175723700Y-124075030D01*
X175723700Y-123327000D01*
X175703700Y-123327000D01*
X175703700Y-123073000D01*
X175723700Y-123073000D01*
X175723700Y-123053000D01*
X175873000Y-123053000D01*
X175873000Y-124722394D01*
X175705394Y-124890000D01*
X173394606Y-124890000D01*
X173102000Y-124597394D01*
X173102000Y-123860000D01*
X173364250Y-123860000D01*
X173523000Y-123701250D01*
X173523000Y-122977000D01*
X173503000Y-122977000D01*
X173503000Y-122723000D01*
X173523000Y-122723000D01*
X173523000Y-122703000D01*
X173777000Y-122703000D01*
X173777000Y-122723000D01*
X173777000Y-122723000D01*
G37*
X173777000Y-122723000D02*
X173797000Y-122723000D01*
X173797000Y-122977000D01*
X173777000Y-122977000D01*
X173777000Y-123701250D01*
X173935750Y-123860000D01*
X174376309Y-123860000D01*
X174609698Y-123763327D01*
X174788327Y-123584699D01*
X174816920Y-123515669D01*
X174816920Y-123725090D01*
X174913593Y-123958479D01*
X175092222Y-124137107D01*
X175325611Y-124233780D01*
X175564950Y-124233780D01*
X175723700Y-124075030D01*
X175723700Y-123327000D01*
X175703700Y-123327000D01*
X175703700Y-123073000D01*
X175723700Y-123073000D01*
X175723700Y-123053000D01*
X175873000Y-123053000D01*
X175873000Y-124722394D01*
X175705394Y-124890000D01*
X173394606Y-124890000D01*
X173102000Y-124597394D01*
X173102000Y-123860000D01*
X173364250Y-123860000D01*
X173523000Y-123701250D01*
X173523000Y-122977000D01*
X173503000Y-122977000D01*
X173503000Y-122723000D01*
X173523000Y-122723000D01*
X173523000Y-122703000D01*
X173777000Y-122703000D01*
X173777000Y-122723000D01*
G36*
X170198000Y-110327606D02*
X170198000Y-114300000D01*
X170208006Y-114349410D01*
X170235197Y-114389803D01*
X172286138Y-116440744D01*
X172235663Y-116562302D01*
X172235551Y-116690584D01*
X172048559Y-116810910D01*
X171903569Y-117023110D01*
X171852560Y-117275000D01*
X171852560Y-118025000D01*
X171893015Y-118240000D01*
X171493691Y-118240000D01*
X171260302Y-118336673D01*
X171227000Y-118369975D01*
X171227000Y-118025000D01*
X171216994Y-117975590D01*
X171189803Y-117935197D01*
X170239803Y-116985197D01*
X170197789Y-116957334D01*
X170150000Y-116948000D01*
X167527606Y-116948000D01*
X166852000Y-116272394D01*
X166852000Y-115935000D01*
X167514250Y-115935000D01*
X167673000Y-115776250D01*
X167673000Y-113527000D01*
X167927000Y-113527000D01*
X167927000Y-115776250D01*
X168085750Y-115935000D01*
X168776309Y-115935000D01*
X169009698Y-115838327D01*
X169188327Y-115659699D01*
X169285000Y-115426310D01*
X169285000Y-113685750D01*
X169126250Y-113527000D01*
X167927000Y-113527000D01*
X167673000Y-113527000D01*
X167653000Y-113527000D01*
X167653000Y-113273000D01*
X167673000Y-113273000D01*
X167673000Y-111023750D01*
X167927000Y-111023750D01*
X167927000Y-113273000D01*
X169126250Y-113273000D01*
X169285000Y-113114250D01*
X169285000Y-111373690D01*
X169188327Y-111140301D01*
X169009698Y-110961673D01*
X168776309Y-110865000D01*
X168085750Y-110865000D01*
X167927000Y-111023750D01*
X167673000Y-111023750D01*
X167514250Y-110865000D01*
X166852000Y-110865000D01*
X166852000Y-110202606D01*
X167052606Y-110002000D01*
X169872394Y-110002000D01*
X170198000Y-110327606D01*
X170198000Y-110327606D01*
G37*
X170198000Y-110327606D02*
X170198000Y-114300000D01*
X170208006Y-114349410D01*
X170235197Y-114389803D01*
X172286138Y-116440744D01*
X172235663Y-116562302D01*
X172235551Y-116690584D01*
X172048559Y-116810910D01*
X171903569Y-117023110D01*
X171852560Y-117275000D01*
X171852560Y-118025000D01*
X171893015Y-118240000D01*
X171493691Y-118240000D01*
X171260302Y-118336673D01*
X171227000Y-118369975D01*
X171227000Y-118025000D01*
X171216994Y-117975590D01*
X171189803Y-117935197D01*
X170239803Y-116985197D01*
X170197789Y-116957334D01*
X170150000Y-116948000D01*
X167527606Y-116948000D01*
X166852000Y-116272394D01*
X166852000Y-115935000D01*
X167514250Y-115935000D01*
X167673000Y-115776250D01*
X167673000Y-113527000D01*
X167927000Y-113527000D01*
X167927000Y-115776250D01*
X168085750Y-115935000D01*
X168776309Y-115935000D01*
X169009698Y-115838327D01*
X169188327Y-115659699D01*
X169285000Y-115426310D01*
X169285000Y-113685750D01*
X169126250Y-113527000D01*
X167927000Y-113527000D01*
X167673000Y-113527000D01*
X167653000Y-113527000D01*
X167653000Y-113273000D01*
X167673000Y-113273000D01*
X167673000Y-111023750D01*
X167927000Y-111023750D01*
X167927000Y-113273000D01*
X169126250Y-113273000D01*
X169285000Y-113114250D01*
X169285000Y-111373690D01*
X169188327Y-111140301D01*
X169009698Y-110961673D01*
X168776309Y-110865000D01*
X168085750Y-110865000D01*
X167927000Y-111023750D01*
X167673000Y-111023750D01*
X167514250Y-110865000D01*
X166852000Y-110865000D01*
X166852000Y-110202606D01*
X167052606Y-110002000D01*
X169872394Y-110002000D01*
X170198000Y-110327606D01*
G36*
X177773000Y-110302606D02*
X177773000Y-111979000D01*
X177735750Y-111979000D01*
X177577000Y-112137750D01*
X177577000Y-112973000D01*
X177597000Y-112973000D01*
X177597000Y-113227000D01*
X177577000Y-113227000D01*
X177577000Y-113247000D01*
X177323000Y-113247000D01*
X177323000Y-113227000D01*
X177303000Y-113227000D01*
X177303000Y-112973000D01*
X177323000Y-112973000D01*
X177323000Y-112137750D01*
X177164250Y-111979000D01*
X176922691Y-111979000D01*
X176689302Y-112075673D01*
X176685000Y-112079975D01*
X176685000Y-111373690D01*
X176588327Y-111140301D01*
X176409698Y-110961673D01*
X176176309Y-110865000D01*
X175485750Y-110865000D01*
X175327000Y-111023750D01*
X175327000Y-113273000D01*
X175347000Y-113273000D01*
X175347000Y-113527000D01*
X175327000Y-113527000D01*
X175327000Y-115776250D01*
X175485750Y-115935000D01*
X175973000Y-115935000D01*
X175973000Y-116419672D01*
X175953569Y-116448110D01*
X175902560Y-116700000D01*
X175902560Y-116713006D01*
X175726309Y-116640000D01*
X175285750Y-116640000D01*
X175127000Y-116798750D01*
X175127000Y-117523000D01*
X175147000Y-117523000D01*
X175147000Y-117777000D01*
X175127000Y-117777000D01*
X175127000Y-118501250D01*
X175227000Y-118601250D01*
X175227000Y-119073000D01*
X175247000Y-119073000D01*
X175247000Y-119177560D01*
X174953000Y-119177560D01*
X174953000Y-119073000D01*
X174973000Y-119073000D01*
X174973000Y-118398750D01*
X174873000Y-118298750D01*
X174873000Y-117777000D01*
X174853000Y-117777000D01*
X174853000Y-117523000D01*
X174873000Y-117523000D01*
X174873000Y-116798750D01*
X174714250Y-116640000D01*
X174273691Y-116640000D01*
X174114539Y-116705923D01*
X174114663Y-116563942D01*
X173971934Y-116218511D01*
X173942132Y-116188657D01*
X173939803Y-116185197D01*
X173352000Y-115597394D01*
X173352000Y-113685750D01*
X173715000Y-113685750D01*
X173715000Y-115426310D01*
X173811673Y-115659699D01*
X173990302Y-115838327D01*
X174223691Y-115935000D01*
X174914250Y-115935000D01*
X175073000Y-115776250D01*
X175073000Y-113527000D01*
X173873750Y-113527000D01*
X173715000Y-113685750D01*
X173352000Y-113685750D01*
X173352000Y-111373690D01*
X173715000Y-111373690D01*
X173715000Y-113114250D01*
X173873750Y-113273000D01*
X175073000Y-113273000D01*
X175073000Y-111023750D01*
X174914250Y-110865000D01*
X174223691Y-110865000D01*
X173990302Y-110961673D01*
X173811673Y-111140301D01*
X173715000Y-111373690D01*
X173352000Y-111373690D01*
X173352000Y-110427606D01*
X173577606Y-110202000D01*
X177672394Y-110202000D01*
X177773000Y-110302606D01*
X177773000Y-110302606D01*
G37*
X177773000Y-110302606D02*
X177773000Y-111979000D01*
X177735750Y-111979000D01*
X177577000Y-112137750D01*
X177577000Y-112973000D01*
X177597000Y-112973000D01*
X177597000Y-113227000D01*
X177577000Y-113227000D01*
X177577000Y-113247000D01*
X177323000Y-113247000D01*
X177323000Y-113227000D01*
X177303000Y-113227000D01*
X177303000Y-112973000D01*
X177323000Y-112973000D01*
X177323000Y-112137750D01*
X177164250Y-111979000D01*
X176922691Y-111979000D01*
X176689302Y-112075673D01*
X176685000Y-112079975D01*
X176685000Y-111373690D01*
X176588327Y-111140301D01*
X176409698Y-110961673D01*
X176176309Y-110865000D01*
X175485750Y-110865000D01*
X175327000Y-111023750D01*
X175327000Y-113273000D01*
X175347000Y-113273000D01*
X175347000Y-113527000D01*
X175327000Y-113527000D01*
X175327000Y-115776250D01*
X175485750Y-115935000D01*
X175973000Y-115935000D01*
X175973000Y-116419672D01*
X175953569Y-116448110D01*
X175902560Y-116700000D01*
X175902560Y-116713006D01*
X175726309Y-116640000D01*
X175285750Y-116640000D01*
X175127000Y-116798750D01*
X175127000Y-117523000D01*
X175147000Y-117523000D01*
X175147000Y-117777000D01*
X175127000Y-117777000D01*
X175127000Y-118501250D01*
X175227000Y-118601250D01*
X175227000Y-119073000D01*
X175247000Y-119073000D01*
X175247000Y-119177560D01*
X174953000Y-119177560D01*
X174953000Y-119073000D01*
X174973000Y-119073000D01*
X174973000Y-118398750D01*
X174873000Y-118298750D01*
X174873000Y-117777000D01*
X174853000Y-117777000D01*
X174853000Y-117523000D01*
X174873000Y-117523000D01*
X174873000Y-116798750D01*
X174714250Y-116640000D01*
X174273691Y-116640000D01*
X174114539Y-116705923D01*
X174114663Y-116563942D01*
X173971934Y-116218511D01*
X173942132Y-116188657D01*
X173939803Y-116185197D01*
X173352000Y-115597394D01*
X173352000Y-113685750D01*
X173715000Y-113685750D01*
X173715000Y-115426310D01*
X173811673Y-115659699D01*
X173990302Y-115838327D01*
X174223691Y-115935000D01*
X174914250Y-115935000D01*
X175073000Y-115776250D01*
X175073000Y-113527000D01*
X173873750Y-113527000D01*
X173715000Y-113685750D01*
X173352000Y-113685750D01*
X173352000Y-111373690D01*
X173715000Y-111373690D01*
X173715000Y-113114250D01*
X173873750Y-113273000D01*
X175073000Y-113273000D01*
X175073000Y-111023750D01*
X174914250Y-110865000D01*
X174223691Y-110865000D01*
X173990302Y-110961673D01*
X173811673Y-111140301D01*
X173715000Y-111373690D01*
X173352000Y-111373690D01*
X173352000Y-110427606D01*
X173577606Y-110202000D01*
X177672394Y-110202000D01*
X177773000Y-110302606D01*
G36*
X166986560Y-120566000D02*
X167030838Y-120801317D01*
X167169910Y-121017441D01*
X167332948Y-121128840D01*
X167243615Y-121225182D01*
X167044025Y-121707056D01*
X167163164Y-121963000D01*
X168523000Y-121963000D01*
X168523000Y-121943000D01*
X168777000Y-121943000D01*
X168777000Y-121963000D01*
X170136836Y-121963000D01*
X170255975Y-121707056D01*
X170056385Y-121225182D01*
X169965903Y-121127602D01*
X170117441Y-121030090D01*
X170262431Y-120817890D01*
X170313440Y-120566000D01*
X170313440Y-119468046D01*
X171110197Y-120264803D01*
X171137704Y-120283046D01*
X170985000Y-120435750D01*
X170985000Y-120601310D01*
X171000268Y-120638171D01*
X170972560Y-120775000D01*
X170972560Y-121425000D01*
X171016838Y-121660317D01*
X171132461Y-121840000D01*
X171023691Y-121840000D01*
X170790302Y-121936673D01*
X170611673Y-122115301D01*
X170515000Y-122348690D01*
X170515000Y-122564250D01*
X170673750Y-122723000D01*
X171623000Y-122723000D01*
X171623000Y-122703000D01*
X171877000Y-122703000D01*
X171877000Y-122723000D01*
X171897000Y-122723000D01*
X171897000Y-122977000D01*
X171877000Y-122977000D01*
X171877000Y-123701250D01*
X172035750Y-123860000D01*
X172173000Y-123860000D01*
X172173000Y-124622394D01*
X171905394Y-124890000D01*
X167544606Y-124890000D01*
X166977000Y-124322394D01*
X166977000Y-122472944D01*
X167044025Y-122472944D01*
X167243615Y-122954818D01*
X167681621Y-123427188D01*
X168267054Y-123695983D01*
X168523000Y-123577367D01*
X168523000Y-122217000D01*
X168777000Y-122217000D01*
X168777000Y-123577367D01*
X169032946Y-123695983D01*
X169618379Y-123427188D01*
X169888615Y-123135750D01*
X170515000Y-123135750D01*
X170515000Y-123351310D01*
X170611673Y-123584699D01*
X170790302Y-123763327D01*
X171023691Y-123860000D01*
X171464250Y-123860000D01*
X171623000Y-123701250D01*
X171623000Y-122977000D01*
X170673750Y-122977000D01*
X170515000Y-123135750D01*
X169888615Y-123135750D01*
X170056385Y-122954818D01*
X170255975Y-122472944D01*
X170136836Y-122217000D01*
X168777000Y-122217000D01*
X168523000Y-122217000D01*
X167163164Y-122217000D01*
X167044025Y-122472944D01*
X166977000Y-122472944D01*
X166977000Y-119377606D01*
X166986560Y-119368046D01*
X166986560Y-120566000D01*
X166986560Y-120566000D01*
G37*
X166986560Y-120566000D02*
X167030838Y-120801317D01*
X167169910Y-121017441D01*
X167332948Y-121128840D01*
X167243615Y-121225182D01*
X167044025Y-121707056D01*
X167163164Y-121963000D01*
X168523000Y-121963000D01*
X168523000Y-121943000D01*
X168777000Y-121943000D01*
X168777000Y-121963000D01*
X170136836Y-121963000D01*
X170255975Y-121707056D01*
X170056385Y-121225182D01*
X169965903Y-121127602D01*
X170117441Y-121030090D01*
X170262431Y-120817890D01*
X170313440Y-120566000D01*
X170313440Y-119468046D01*
X171110197Y-120264803D01*
X171137704Y-120283046D01*
X170985000Y-120435750D01*
X170985000Y-120601310D01*
X171000268Y-120638171D01*
X170972560Y-120775000D01*
X170972560Y-121425000D01*
X171016838Y-121660317D01*
X171132461Y-121840000D01*
X171023691Y-121840000D01*
X170790302Y-121936673D01*
X170611673Y-122115301D01*
X170515000Y-122348690D01*
X170515000Y-122564250D01*
X170673750Y-122723000D01*
X171623000Y-122723000D01*
X171623000Y-122703000D01*
X171877000Y-122703000D01*
X171877000Y-122723000D01*
X171897000Y-122723000D01*
X171897000Y-122977000D01*
X171877000Y-122977000D01*
X171877000Y-123701250D01*
X172035750Y-123860000D01*
X172173000Y-123860000D01*
X172173000Y-124622394D01*
X171905394Y-124890000D01*
X167544606Y-124890000D01*
X166977000Y-124322394D01*
X166977000Y-122472944D01*
X167044025Y-122472944D01*
X167243615Y-122954818D01*
X167681621Y-123427188D01*
X168267054Y-123695983D01*
X168523000Y-123577367D01*
X168523000Y-122217000D01*
X168777000Y-122217000D01*
X168777000Y-123577367D01*
X169032946Y-123695983D01*
X169618379Y-123427188D01*
X169888615Y-123135750D01*
X170515000Y-123135750D01*
X170515000Y-123351310D01*
X170611673Y-123584699D01*
X170790302Y-123763327D01*
X171023691Y-123860000D01*
X171464250Y-123860000D01*
X171623000Y-123701250D01*
X171623000Y-122977000D01*
X170673750Y-122977000D01*
X170515000Y-123135750D01*
X169888615Y-123135750D01*
X170056385Y-122954818D01*
X170255975Y-122472944D01*
X170136836Y-122217000D01*
X168777000Y-122217000D01*
X168523000Y-122217000D01*
X167163164Y-122217000D01*
X167044025Y-122472944D01*
X166977000Y-122472944D01*
X166977000Y-119377606D01*
X166986560Y-119368046D01*
X166986560Y-120566000D01*
G36*
X181205585Y-115349670D02*
X181520366Y-115560000D01*
X181205585Y-115770330D01*
X180880729Y-116256511D01*
X180766655Y-116830000D01*
X180880729Y-117403489D01*
X181205585Y-117889670D01*
X181691766Y-118214526D01*
X182265255Y-118328600D01*
X182634745Y-118328600D01*
X183208234Y-118214526D01*
X183694415Y-117889670D01*
X183873000Y-117622399D01*
X183873000Y-119935296D01*
X183856385Y-119895182D01*
X183418379Y-119422812D01*
X182832946Y-119154017D01*
X182577000Y-119272633D01*
X182577000Y-120633000D01*
X182597000Y-120633000D01*
X182597000Y-120887000D01*
X182577000Y-120887000D01*
X182577000Y-120907000D01*
X182323000Y-120907000D01*
X182323000Y-120887000D01*
X180963164Y-120887000D01*
X180844025Y-121142944D01*
X181043615Y-121624818D01*
X181134097Y-121722398D01*
X180982559Y-121819910D01*
X180837569Y-122032110D01*
X180786560Y-122284000D01*
X180786560Y-123507500D01*
X180606750Y-123507500D01*
X180476250Y-123377000D01*
X179900000Y-123377000D01*
X179900000Y-123397000D01*
X179747440Y-123397000D01*
X179747440Y-123103000D01*
X179900000Y-123103000D01*
X179900000Y-123123000D01*
X180476250Y-123123000D01*
X180635000Y-122964250D01*
X180635000Y-122823690D01*
X180538327Y-122590301D01*
X180359698Y-122411673D01*
X180266462Y-122373053D01*
X180370431Y-122220890D01*
X180421440Y-121969000D01*
X180421440Y-120769000D01*
X180377162Y-120533683D01*
X180276376Y-120377056D01*
X180844025Y-120377056D01*
X180963164Y-120633000D01*
X182323000Y-120633000D01*
X182323000Y-119272633D01*
X182067054Y-119154017D01*
X181481621Y-119422812D01*
X181043615Y-119895182D01*
X180844025Y-120377056D01*
X180276376Y-120377056D01*
X180238090Y-120317559D01*
X180168289Y-120269866D01*
X180225441Y-120233090D01*
X180370431Y-120020890D01*
X180421440Y-119769000D01*
X180421440Y-118569000D01*
X180377162Y-118333683D01*
X180263711Y-118157375D01*
X180309698Y-118138327D01*
X180488327Y-117959699D01*
X180585000Y-117726310D01*
X180585000Y-117435750D01*
X180426250Y-117277000D01*
X179477000Y-117277000D01*
X179477000Y-117297000D01*
X179223000Y-117297000D01*
X179223000Y-117277000D01*
X179203000Y-117277000D01*
X179203000Y-117023000D01*
X179223000Y-117023000D01*
X179223000Y-117003000D01*
X179477000Y-117003000D01*
X179477000Y-117023000D01*
X180426250Y-117023000D01*
X180585000Y-116864250D01*
X180585000Y-116573690D01*
X180488327Y-116340301D01*
X180309698Y-116161673D01*
X180094170Y-116072398D01*
X181049899Y-115116669D01*
X181205585Y-115349670D01*
X181205585Y-115349670D01*
G37*
X181205585Y-115349670D02*
X181520366Y-115560000D01*
X181205585Y-115770330D01*
X180880729Y-116256511D01*
X180766655Y-116830000D01*
X180880729Y-117403489D01*
X181205585Y-117889670D01*
X181691766Y-118214526D01*
X182265255Y-118328600D01*
X182634745Y-118328600D01*
X183208234Y-118214526D01*
X183694415Y-117889670D01*
X183873000Y-117622399D01*
X183873000Y-119935296D01*
X183856385Y-119895182D01*
X183418379Y-119422812D01*
X182832946Y-119154017D01*
X182577000Y-119272633D01*
X182577000Y-120633000D01*
X182597000Y-120633000D01*
X182597000Y-120887000D01*
X182577000Y-120887000D01*
X182577000Y-120907000D01*
X182323000Y-120907000D01*
X182323000Y-120887000D01*
X180963164Y-120887000D01*
X180844025Y-121142944D01*
X181043615Y-121624818D01*
X181134097Y-121722398D01*
X180982559Y-121819910D01*
X180837569Y-122032110D01*
X180786560Y-122284000D01*
X180786560Y-123507500D01*
X180606750Y-123507500D01*
X180476250Y-123377000D01*
X179900000Y-123377000D01*
X179900000Y-123397000D01*
X179747440Y-123397000D01*
X179747440Y-123103000D01*
X179900000Y-123103000D01*
X179900000Y-123123000D01*
X180476250Y-123123000D01*
X180635000Y-122964250D01*
X180635000Y-122823690D01*
X180538327Y-122590301D01*
X180359698Y-122411673D01*
X180266462Y-122373053D01*
X180370431Y-122220890D01*
X180421440Y-121969000D01*
X180421440Y-120769000D01*
X180377162Y-120533683D01*
X180276376Y-120377056D01*
X180844025Y-120377056D01*
X180963164Y-120633000D01*
X182323000Y-120633000D01*
X182323000Y-119272633D01*
X182067054Y-119154017D01*
X181481621Y-119422812D01*
X181043615Y-119895182D01*
X180844025Y-120377056D01*
X180276376Y-120377056D01*
X180238090Y-120317559D01*
X180168289Y-120269866D01*
X180225441Y-120233090D01*
X180370431Y-120020890D01*
X180421440Y-119769000D01*
X180421440Y-118569000D01*
X180377162Y-118333683D01*
X180263711Y-118157375D01*
X180309698Y-118138327D01*
X180488327Y-117959699D01*
X180585000Y-117726310D01*
X180585000Y-117435750D01*
X180426250Y-117277000D01*
X179477000Y-117277000D01*
X179477000Y-117297000D01*
X179223000Y-117297000D01*
X179223000Y-117277000D01*
X179203000Y-117277000D01*
X179203000Y-117023000D01*
X179223000Y-117023000D01*
X179223000Y-117003000D01*
X179477000Y-117003000D01*
X179477000Y-117023000D01*
X180426250Y-117023000D01*
X180585000Y-116864250D01*
X180585000Y-116573690D01*
X180488327Y-116340301D01*
X180309698Y-116161673D01*
X180094170Y-116072398D01*
X181049899Y-115116669D01*
X181205585Y-115349670D01*
G36*
X183708452Y-110288058D02*
X183466000Y-110238960D01*
X181434000Y-110238960D01*
X181198683Y-110283238D01*
X180982559Y-110422310D01*
X180837569Y-110634510D01*
X180786560Y-110886400D01*
X180786560Y-111055956D01*
X180718154Y-111069563D01*
X180479216Y-111229216D01*
X180104216Y-111604216D01*
X179944563Y-111843154D01*
X179914479Y-111994396D01*
X179877309Y-111979000D01*
X179635750Y-111979000D01*
X179477000Y-112137750D01*
X179477000Y-112973000D01*
X179497000Y-112973000D01*
X179497000Y-113227000D01*
X179477000Y-113227000D01*
X179477000Y-113247000D01*
X179223000Y-113247000D01*
X179223000Y-113227000D01*
X179203000Y-113227000D01*
X179203000Y-112973000D01*
X179223000Y-112973000D01*
X179223000Y-112137750D01*
X179064250Y-111979000D01*
X178822691Y-111979000D01*
X178752000Y-112008281D01*
X178752000Y-110302606D01*
X179002606Y-110052000D01*
X183472394Y-110052000D01*
X183708452Y-110288058D01*
X183708452Y-110288058D01*
G37*
X183708452Y-110288058D02*
X183466000Y-110238960D01*
X181434000Y-110238960D01*
X181198683Y-110283238D01*
X180982559Y-110422310D01*
X180837569Y-110634510D01*
X180786560Y-110886400D01*
X180786560Y-111055956D01*
X180718154Y-111069563D01*
X180479216Y-111229216D01*
X180104216Y-111604216D01*
X179944563Y-111843154D01*
X179914479Y-111994396D01*
X179877309Y-111979000D01*
X179635750Y-111979000D01*
X179477000Y-112137750D01*
X179477000Y-112973000D01*
X179497000Y-112973000D01*
X179497000Y-113227000D01*
X179477000Y-113227000D01*
X179477000Y-113247000D01*
X179223000Y-113247000D01*
X179223000Y-113227000D01*
X179203000Y-113227000D01*
X179203000Y-112973000D01*
X179223000Y-112973000D01*
X179223000Y-112137750D01*
X179064250Y-111979000D01*
X178822691Y-111979000D01*
X178752000Y-112008281D01*
X178752000Y-110302606D01*
X179002606Y-110052000D01*
X183472394Y-110052000D01*
X183708452Y-110288058D01*
M02*
